<?xml version="1.0" encoding="UTF-8" standalone="no"?>
<!DOCTYPE svg PUBLIC "-//W3C//DTD SVG 1.1//EN" "http://www.w3.org/Graphics/SVG/1.1/DTD/svg11.dtd">
<svg width="100%" height="100%" viewBox="0 0 64 64" version="1.1" xmlns="http://www.w3.org/2000/svg" xmlns:xlink="http://www.w3.org/1999/xlink" xml:space="preserve" xmlns:serif="http://www.serif.com/" style="fill-rule:evenodd;clip-rule:evenodd;stroke-linejoin:round;stroke-miterlimit:2;">
    <g transform="matrix(0.496656,0,0,0.490273,0.44041,0.628757)">
        <path d="M63.593,0.163C98.781,0.163 127.349,28.757 127.349,63.976C127.349,99.196 98.781,127.79 63.593,127.79C28.405,127.79 -0.163,99.196 -0.163,63.976C-0.163,28.757 28.405,0.163 63.593,0.163ZM63.593,12.785C91.82,12.785 114.738,35.723 114.738,63.976C114.738,92.23 91.82,115.167 63.593,115.167C35.365,115.167 12.448,92.23 12.448,63.976C12.448,35.723 35.365,12.785 63.593,12.785Z" style="fill:rgb(153,153,153);"/>
    </g>
    <g transform="matrix(0.319028,0,0,0.319028,-0.244276,20.3156)">
        <text x="27.847px" y="82.192px" style="font-family:'KronaOne-Regular', 'Krona One';font-size:70.932px;fill:rgb(153,153,153);">DW</text>
    </g>
    <g transform="matrix(0.273705,0,0,0.273705,-234.836,-57.1184)">
        <circle cx="900.322" cy="280.786" r="3.556" style="fill:rgb(153,153,153);"/>
    </g>
    <g transform="matrix(0.273705,0,0,0.273705,-231.82,-55.8958)">
        <circle cx="900.322" cy="280.786" r="3.556" style="fill:rgb(153,153,153);"/>
    </g>
    <g transform="matrix(0.273705,0,0,0.273705,-228.723,-56.3848)">
        <circle cx="900.322" cy="280.786" r="3.556" style="fill:rgb(153,153,153);"/>
    </g>
    <g transform="matrix(0.273705,0,0,0.273705,-225.951,-57.9334)">
        <circle cx="900.322" cy="280.786" r="3.556" style="fill:rgb(153,153,153);"/>
    </g>
    <g transform="matrix(0.273705,0,0,0.273705,-223.343,-59.7265)">
        <circle cx="900.322" cy="280.786" r="3.556" style="fill:rgb(153,153,153);"/>
    </g>
    <g transform="matrix(0.273705,0,0,0.273705,-220.735,-61.1121)">
        <circle cx="900.322" cy="280.786" r="3.556" style="fill:rgb(153,153,153);"/>
    </g>
    <g transform="matrix(0.273705,0,0,0.273705,-217.801,-61.9272)">
        <circle cx="900.322" cy="280.786" r="3.556" style="fill:rgb(153,153,153);"/>
    </g>
    <g transform="matrix(0.273705,0,0,0.273705,-214.785,-61.7642)">
        <circle cx="900.322" cy="280.786" r="3.556" style="fill:rgb(153,153,153);"/>
    </g>
    <g transform="matrix(0.273705,0,0,0.273705,-211.525,-61.1936)">
        <circle cx="900.322" cy="280.786" r="3.556" style="fill:rgb(153,153,153);"/>
    </g>
    <g transform="matrix(0.273705,0,0,0.273705,-208.428,-60.0526)">
        <circle cx="900.322" cy="280.786" r="3.556" style="fill:rgb(153,153,153);"/>
    </g>
    <g transform="matrix(0.273705,0,0,0.273705,-205.738,-58.5855)">
        <circle cx="900.322" cy="280.786" r="3.556" style="fill:rgb(153,153,153);"/>
    </g>
    <g transform="matrix(0.273705,0,0,0.273705,-202.967,-57.5259)">
        <circle cx="900.322" cy="280.786" r="3.556" style="fill:rgb(153,153,153);"/>
    </g>
    <g transform="matrix(0.273705,0,0,0.273705,-200.196,-57.0369)">
        <circle cx="900.322" cy="280.786" r="3.556" style="fill:rgb(153,153,153);"/>
    </g>
    <g transform="matrix(0.273705,0,0,0.273705,-197.017,-57.1184)">
        <circle cx="900.322" cy="280.786" r="3.556" style="fill:rgb(153,153,153);"/>
    </g>
    <g transform="matrix(0.273705,0,0,0.273705,-194.246,-58.1779)">
        <circle cx="900.322" cy="280.786" r="3.556" style="fill:rgb(153,153,153);"/>
    </g>
</svg>
