<?xml version="1.0" encoding="UTF-8" standalone="no"?>
<!DOCTYPE svg PUBLIC "-//W3C//DTD SVG 1.1//EN" "http://www.w3.org/Graphics/SVG/1.1/DTD/svg11.dtd">
<svg width="100%" height="100%" viewBox="0 0 128 128" version="1.1" xmlns="http://www.w3.org/2000/svg" xmlns:xlink="http://www.w3.org/1999/xlink" xml:space="preserve" xmlns:serif="http://www.serif.com/" style="fill-rule:evenodd;clip-rule:evenodd;stroke-linejoin:round;stroke-miterlimit:2;">
    <g transform="matrix(0.992337,0,0,0.979584,0.487302,0.654724)">
        <path d="M63.593,0.163C98.781,0.163 127.349,28.757 127.349,63.976C127.349,99.196 98.781,127.79 63.593,127.79C28.405,127.79 -0.163,99.196 -0.163,63.976C-0.163,28.757 28.405,0.163 63.593,0.163ZM63.593,12.785C91.82,12.785 114.738,35.723 114.738,63.976C114.738,92.23 91.82,115.167 63.593,115.167C35.365,115.167 12.448,92.23 12.448,63.976C12.448,35.723 35.365,12.785 63.593,12.785Z" style="fill:rgb(235,235,235);"/>
    </g>
    <g transform="matrix(0.63743,0,0,0.63743,-0.880728,39.9897)">
        <text x="27.847px" y="82.192px" style="font-family:'KronaOne-Regular', 'Krona One';font-size:70.932px;fill:rgb(170,170,170);">DW</text>
    </g>
    <g transform="matrix(0.546872,0,0,0.546872,-469.603,-114.726)">
        <circle cx="900.322" cy="280.786" r="3.556" style="fill:rgb(128,128,128);"/>
    </g>
    <g transform="matrix(0.546872,0,0,0.546872,-463.578,-112.284)">
        <circle cx="900.322" cy="280.786" r="3.556" style="fill:rgb(128,128,128);"/>
    </g>
    <g transform="matrix(0.546872,0,0,0.546872,-457.389,-113.261)">
        <circle cx="900.322" cy="280.786" r="3.556" style="fill:rgb(128,128,128);"/>
    </g>
    <g transform="matrix(0.546872,0,0,0.546872,-451.853,-116.355)">
        <circle cx="900.322" cy="280.786" r="3.556" style="fill:rgb(128,128,128);"/>
    </g>
    <g transform="matrix(0.546872,0,0,0.546872,-446.641,-119.937)">
        <circle cx="900.322" cy="280.786" r="3.556" style="fill:rgb(128,128,128);"/>
    </g>
    <g transform="matrix(0.546872,0,0,0.546872,-441.43,-122.706)">
        <circle cx="900.322" cy="280.786" r="3.556" style="fill:rgb(128,128,128);"/>
    </g>
    <g transform="matrix(0.546872,0,0,0.546872,-435.568,-124.334)">
        <circle cx="900.322" cy="280.786" r="3.556" style="fill:rgb(128,128,128);"/>
    </g>
    <g transform="matrix(0.546872,0,0,0.546872,-429.542,-124.009)">
        <circle cx="900.322" cy="280.786" r="3.556" style="fill:rgb(128,128,128);"/>
    </g>
    <g transform="matrix(0.546872,0,0,0.546872,-423.028,-122.869)">
        <circle cx="900.322" cy="280.786" r="3.556" style="fill:rgb(128,128,128);"/>
    </g>
    <g transform="matrix(0.546872,0,0,0.546872,-416.84,-120.589)">
        <circle cx="900.322" cy="280.786" r="3.556" style="fill:rgb(128,128,128);"/>
    </g>
    <g transform="matrix(0.546872,0,0,0.546872,-411.466,-117.658)">
        <circle cx="900.322" cy="280.786" r="3.556" style="fill:rgb(128,128,128);"/>
    </g>
    <g transform="matrix(0.546872,0,0,0.546872,-405.929,-115.541)">
        <circle cx="900.322" cy="280.786" r="3.556" style="fill:rgb(128,128,128);"/>
    </g>
    <g transform="matrix(0.546872,0,0,0.546872,-400.392,-114.563)">
        <circle cx="900.322" cy="280.786" r="3.556" style="fill:rgb(128,128,128);"/>
    </g>
    <g transform="matrix(0.546872,0,0,0.546872,-394.041,-114.726)">
        <circle cx="900.322" cy="280.786" r="3.556" style="fill:rgb(128,128,128);"/>
    </g>
    <g transform="matrix(0.546872,0,0,0.546872,-388.504,-116.843)">
        <circle cx="900.322" cy="280.786" r="3.556" style="fill:rgb(128,128,128);"/>
    </g>
</svg>
